<?xml version="1.0" encoding="UTF-8" standalone="no"?>
<svg
   xmlns:dc="http://purl.org/dc/elements/1.1/"
   xmlns:cc="http://creativecommons.org/ns#"
   xmlns:rdf="http://www.w3.org/1999/02/22-rdf-syntax-ns#"
   xmlns:svg="http://www.w3.org/2000/svg"
   xmlns="http://www.w3.org/2000/svg"
   xmlns:sodipodi="http://sodipodi.sourceforge.net/DTD/sodipodi-0.dtd"
   xmlns:inkscape="http://www.inkscape.org/namespaces/inkscape"
   data-name="Layer 1"
   viewBox="0 0 46.400002 58"
   x="0px"
   y="0px"
   version="1.1"
   id="svg58"
   sodipodi:docname="midi-icon.svg"
   width="46.400002"
   height="58"
   inkscape:version="1.0 (4035a4fb49, 2020-05-01)">
  <metadata
     id="metadata64">
    <rdf:RDF>
      <cc:Work
         rdf:about="">
        <dc:format>image/svg+xml</dc:format>
        <dc:type
           rdf:resource="http://purl.org/dc/dcmitype/StillImage" />
      </cc:Work>
    </rdf:RDF>
  </metadata>
  <defs
     id="defs62" />
  <sodipodi:namedview
     inkscape:document-rotation="0"
     pagecolor="#ffffff"
     bordercolor="#666666"
     borderopacity="1"
     objecttolerance="10"
     gridtolerance="10"
     guidetolerance="10"
     inkscape:pageopacity="0"
     inkscape:pageshadow="2"
     inkscape:window-width="1920"
     inkscape:window-height="1001"
     id="namedview60"
     showgrid="false"
     inkscape:zoom="10.375"
     inkscape:cx="22.385542"
     inkscape:cy="31.050624"
     inkscape:window-x="-9"
     inkscape:window-y="-9"
     inkscape:window-maximized="1"
     inkscape:current-layer="svg58" />
  <title
     id="title42">file format music sound</title>
  <path
     d="m 17.927264,47.437 -1.834896,6.084 h -1.539632 l -1.8096,-6.072 v 6.072 H 10.9504 v -8.928 h 2.695416 l 1.6704,5.736 1.687264,-5.736 H 19.72 v 8.928 h -1.792736 z"
     id="path44"
     style="fill:#ffffff;fill-opacity:1;stroke-width:1.02691" />
  <path
     d="m 21.113048,44.593 h 2.011016 v 8.928 h -2.011016 z"
     id="path46"
     style="fill:#ffffff;fill-opacity:1;stroke-width:1.02691" />
  <path
     d="m 27.62908,53.521 h -3.099296 v -8.928 h 3.077168 a 5.0618184,4.8 0 0 1 1.93508,0.318 3.48,3.3 0 0 1 1.343504,0.906 3.9545448,3.75 0 0 1 0.781416,1.41 6.96,6.6 0 0 1 0.25308,1.842 6.7944368,6.443 0 0 1 -0.265752,1.889 3.690908,3.5 0 0 1 -0.832032,1.4 4.0557816,3.846 0 0 1 -3.193168,1.163 z m -0.0232,-7.3 H 26.5408 v 5.664 h 1.04188 a 2.4697448,2.342 0 0 0 1.149472,-0.224 1.8159264,1.722 0 0 0 0.711816,-0.618 2.7418184,2.6 0 0 0 0.361696,-0.907 6.2956368,5.97 0 0 0 0.105472,-1.1 A 5.2010184,4.932 0 0 0 29.7656,47.796 2.6363632,2.5 0 0 0 29.343784,46.919 2.020508,1.916 0 0 0 27.608,46.225 Z"
     id="path48"
     style="fill:#ffffff;fill-opacity:1;stroke-width:1.02691" />
  <path
     d="m 33.209752,44.593 h 2.012064 v 8.928 h -2.012064 z"
     id="path50"
     style="fill:#ffffff;fill-opacity:1;stroke-width:1.02691" />
  <path
     d="m 46.231264,14.73 c -0.02108,-0.02 -0.04216,-0.05 -0.06336,-0.07 a 0.5104,0.484 0 0 0 -0.07384,-0.08 L 31.024736,0.29 C 31.003624,0.27 30.972008,0.25 30.950918,0.23 30.929806,0.21 30.887634,0.18 30.866554,0.16 L 30.708368,0 H 4.2181816 A 4.2181816,4 0 0 0 0,4 v 50 a 4.2181816,4 0 0 0 4.2181816,4 H 42.181816 A 4.2181816,4 0 0 0 46.4,54 V 14.88 Z M 31.330552,3.41 42.804,14.29 h -9.364368 a 2.1154184,2.006 0 0 1 -2.10908,-2 z m -1.144184,25.408 a 3.999892,3.793 0 0 1 2.530896,0.825 l -0.02642,-8.753 a 0.17083632,0.162 0 0 1 0.237279,-0.151 6.579308,6.239 0 0 1 3.938721,4.477 0.10691522,0.10138512 0 0 1 -0.195089,0.083 2.9769816,2.823 0 0 0 -2.812464,-1.386 V 31.6 c 0.007,0.079 0.01472,0.159 0.01472,0.24 a 3.4673448,3.288 0 0 1 -3.690891,3.019 3.466292,3.287 0 0 1 -3.685632,-3.019 3.466292,3.287 0 0 1 3.6888,-3.022 z M 13.392736,21.423 a 7.352292,6.972 0 0 1 4.646312,1.52 L 17.994768,6.836 a 0.31636368,0.3 0 0 1 0.435512,-0.278 12.106184,11.48 0 0 1 7.25,8.242 0.20036368,0.19 0 0 1 -0.3596,0.153 5.4836368,5.2 0 0 0 -5.178864,-2.553 v 14.138 c 0.01372,0.146 0.02744,0.292 0.02744,0.441 0,3.063 -3.043416,5.556 -6.782832,5.556 -3.7394179,0 -6.7828359,-2.493 -6.7828359,-5.556 0,-3.063 3.0444727,-5.556 6.7891689,-5.556 z M 44.29092,54 a 2.1154184,2.006 0 0 1 -2.109104,2 H 4.2181816 A 2.1154184,2.006 0 0 1 2.109092,54 V 38.46 H 16.588 l 2.847264,3.09 a 1.0345084,0.981 0 0 0 0.79092,0.34 H 44.29092 Z"
     id="path52"
     style="fill:#ffffff;fill-opacity:1;stroke-width:1.02691" />
</svg>
