<?xml version="1.0" encoding="UTF-8" standalone="no"?>
<svg
   xmlns:dc="http://purl.org/dc/elements/1.1/"
   xmlns:cc="http://creativecommons.org/ns#"
   xmlns:rdf="http://www.w3.org/1999/02/22-rdf-syntax-ns#"
   xmlns:svg="http://www.w3.org/2000/svg"
   xmlns="http://www.w3.org/2000/svg"
   xmlns:sodipodi="http://sodipodi.sourceforge.net/DTD/sodipodi-0.dtd"
   xmlns:inkscape="http://www.inkscape.org/namespaces/inkscape"
   inkscape:version="1.0 (4035a4fb49, 2020-05-01)"
   viewBox="0 0 358.39999 448"
   x="0px"
   y="0px"
   version="1.1"
   id="svg24"
   sodipodi:docname="sheet-music.svg"
   width="358.39999"
   height="448">
  <metadata
     id="metadata30">
    <rdf:RDF>
      <cc:Work
         rdf:about="">
        <dc:format>image/svg+xml</dc:format>
        <dc:type
           rdf:resource="http://purl.org/dc/dcmitype/StillImage" />
      </cc:Work>
    </rdf:RDF>
  </metadata>
  <defs
     id="defs28" />
  <sodipodi:namedview
     inkscape:document-rotation="0"
     inkscape:current-layer="svg24"
     inkscape:window-maximized="1"
     inkscape:window-y="-9"
     inkscape:window-x="-9"
     inkscape:cy="288"
     inkscape:cx="152"
     inkscape:zoom="1.296875"
     showgrid="false"
     id="namedview26"
     inkscape:window-height="1001"
     inkscape:window-width="1920"
     inkscape:pageshadow="2"
     inkscape:pageopacity="0"
     guidetolerance="10"
     gridtolerance="10"
     objecttolerance="10"
     borderopacity="1"
     bordercolor="#666666"
     pagecolor="#ffffff" />
  <ellipse
     ry="8"
     rx="9.43155"
     style="fill:#ffffff;fill-opacity:1;stroke-width:1.08574"
     id="circle2"
     cy="328"
     cx="235.78995" />
  <path
     style="fill:#ffffff;fill-opacity:1;stroke-width:1.08574"
     id="path4"
     d="m 216.92663,184 a 28.32659,24.027 0 0 1 28.29422,-24 h -47.15787 v 40 a 28.163854,23.889 0 0 1 -1.62214,8 h 48.78001 a 28.32659,24.027 0 0 1 -28.29422,-24 z" />
  <path
     style="fill:#ffffff;fill-opacity:1;stroke-width:1.08574"
     id="path6"
     d="m 254.65252,160 h -9.43167 a 28.163854,23.889 0 0 1 9.43167,1.376 z" />
  <ellipse
     ry="8"
     rx="9.43155"
     style="fill:#ffffff;fill-opacity:1;stroke-width:1.08574"
     id="circle8"
     cy="264"
     cx="75.452415" />
  <polygon
     style="fill:#ffffff;fill-opacity:1"
     transform="matrix(1.1789437,0,0,1,-122.61044,-32)"
     id="polygon10"
     points="344,43.313 344,96 396.687,96 " />
  <ellipse
     ry="8"
     rx="9.43155"
     style="fill:#ffffff;fill-opacity:1;stroke-width:1.08574"
     id="circle12"
     cy="200"
     cx="169.76807" />
  <ellipse
     ry="8"
     rx="9.43155"
     style="fill:#ffffff;fill-opacity:1;stroke-width:1.08574"
     id="circle14"
     cy="184"
     cx="245.22073" />
  <polygon
     style="fill:#ffffff;fill-opacity:1"
     transform="matrix(1.1789437,0,0,1,-122.61044,-32)"
     id="polygon16"
     points="320,146.246 272,158.246 272,176 320,176 " />
  <path
     style="fill:#ffffff;fill-opacity:1;stroke-width:1.08574"
     id="path18"
     d="m 358.4,80 h -84.88387 a 9.4315865,8 0 0 1 -9.43226,-8 V 0 H 0 V 448 H 358.4 Z M 28.294748,80 H 188.63132 a 9.4315865,8 0 0 1 0,16 H 28.294748 a 9.4315865,8 0 0 1 0,-16 z M 216.92663,416 H 28.294748 a 9.4315865,8 0 0 1 0,-16 H 216.92663 a 9.4315865,8 0 0 1 0,16 z m 113.179,-208 a 9.4315865,8 0 0 1 0,16 H 103.7475 v 40 a 28.159182,23.885 0 0 1 -1.62259,8 h 143.09594 v -8 a 9.4315865,8 0 0 1 7.14426,-7.761 l 75.45316,-16 a 9.4315865,8 0 0 1 4.57389,15.522 l -68.30829,14.485 V 272 h 66.02176 a 9.4315865,8 0 0 1 0,16 h -66.02176 v 40 a 28.159182,23.885 0 0 1 -1.62215,8 h 67.64391 a 9.4315865,8 0 0 1 0,16 H 28.294748 a 9.4315865,8 0 0 1 0,-16 H 209.11708 a 28.285285,23.992 0 0 1 36.10377,-30.624 V 288 H 28.294748 a 9.4315865,8 0 0 1 0,-16 H 48.780163 A 28.285285,23.992 0 0 1 84.88419,241.376 V 224 H 28.294748 a 9.4315865,8 0 0 1 0,-16 H 84.88419 v -24 a 9.431655,8.0000619 0 0 1 18.86331,0 v 24 h 39.34873 A 28.285285,23.992 0 0 1 179.2,177.376 V 160 H 28.294748 a 9.4315865,8 0 0 1 0,-16 H 179.2 v -24 a 9.4315865,8 0 0 1 7.14416,-7.761 l 75.45312,-16 A 9.4315865,8 0 0 1 273.51613,104 v 40 h 56.5895 a 9.4315865,8 0 0 1 0,16 h -56.5895 v 24 a 28.32659,24.027 0 0 1 -28.29528,24 z" />
</svg>
